<svg width="12" height="16" viewBox="0 0 12 16" fill="none" xmlns="http://www.w3.org/2000/svg">
<path d="M3.48099 9.247C3.37149 9.847 2.93749 12.644 2.80899 13.4345C2.79949 13.491 2.77749 13.5125 2.71499 13.5125H0.383992C0.329296 13.5129 0.275168 13.5014 0.225316 13.4789C0.175465 13.4564 0.131068 13.4234 0.0951675 13.3821C0.0592669 13.3408 0.0327112 13.2923 0.0173193 13.2398C0.00192737 13.1873 -0.00193679 13.1321 0.00599154 13.078L1.83749 1.456C1.86272 1.30844 1.93926 1.17453 2.05362 1.07792C2.16798 0.981315 2.31279 0.928215 2.46249 0.927998C7.22199 0.927998 7.62199 0.812498 8.83749 1.2845C10.7155 2.0125 10.8875 3.769 10.2125 5.669C9.54049 7.6255 7.94699 8.466 5.83449 8.491C4.47849 8.513 3.66249 8.272 3.48149 9.247H3.48099ZM11.1595 4.75C11.103 4.7095 11.0815 4.6935 11.0655 4.7905C10.9999 5.1468 10.9079 5.49776 10.7905 5.8405C9.54349 9.397 6.08749 9.0875 4.39999 9.0875C4.20949 9.0875 4.08449 9.1905 4.05949 9.381C3.35349 13.7685 3.21249 14.684 3.21249 14.684C3.18099 14.906 3.32199 15.087 3.54349 15.087H5.52799C5.79699 15.087 6.01849 14.89 6.07199 14.6215C6.09399 14.453 6.03749 14.812 6.52199 11.7685C6.66599 11.081 6.96899 11.153 7.43749 11.153C9.65649 11.153 11.3875 10.253 11.903 7.6435C12.106 6.556 12.047 5.412 11.1595 4.7495V4.75Z" fill="white"/>
</svg>
